<?xml version="1.0" encoding="UTF-8" standalone="no"?>
<!-- Created with Inkscape (http://www.inkscape.org/) -->

<svg
   xmlns:dc="http://purl.org/dc/elements/1.1/"
   xmlns:cc="http://creativecommons.org/ns#"
   xmlns:rdf="http://www.w3.org/1999/02/22-rdf-syntax-ns#"
   xmlns:svg="http://www.w3.org/2000/svg"
   xmlns="http://www.w3.org/2000/svg"
   xmlns:sodipodi="http://sodipodi.sourceforge.net/DTD/sodipodi-0.dtd"
   xmlns:inkscape="http://www.inkscape.org/namespaces/inkscape"
   width="230.1875mm"
   height="130.17712mm"
   viewBox="0 0 230.1875 130.17712"
   version="1.1"
   id="svg8"
   inkscape:version="0.48.4 r9939"
   sodipodi:docname="values.svg">
  <defs
     id="defs2" />
  <sodipodi:namedview
     id="base"
     pagecolor="#ffffff"
     bordercolor="#666666"
     borderopacity="1.0"
     inkscape:pageopacity="0.0"
     inkscape:pageshadow="2"
     inkscape:zoom="0.7"
     inkscape:cx="435.85613"
     inkscape:cy="102.67029"
     inkscape:document-units="mm"
     inkscape:current-layer="layer1"
     showgrid="false"
     fit-margin-top="0"
     fit-margin-left="0"
     fit-margin-right="0"
     fit-margin-bottom="0"
     inkscape:window-width="958"
     inkscape:window-height="1078"
     inkscape:window-x="55"
     inkscape:window-y="-6"
     inkscape:window-maximized="0" />
  <metadata
     id="metadata5">
    <rdf:RDF>
      <cc:Work
         rdf:about="">
        <dc:format>image/svg+xml</dc:format>
        <dc:type
           rdf:resource="http://purl.org/dc/dcmitype/StillImage" />
        <dc:title />
      </cc:Work>
    </rdf:RDF>
  </metadata>
  <g
     inkscape:label="Layer 1"
     inkscape:groupmode="layer"
     id="layer1"
     transform="translate(130.2128,-81.476918)"
     aria-label="TRAPS">
    <rect
       style="fill:#eeeeee;fill-opacity:1;fill-rule:nonzero;stroke:none"
       id="rect5518"
       width="230.1875"
       height="130.17712"
       x="-130.2128"
       y="82.047096"
       rx="5.2916665"
       ry="5.2916665" />
    <text
       xml:space="preserve"
       style="font-size:11.28888893px;font-style:normal;font-variant:normal;font-weight:bold;font-stretch:normal;line-height:125%;letter-spacing:0px;word-spacing:0px;fill:#000000;fill-opacity:1;stroke:none;font-family:Arial;-inkscape-font-specification:Arial Bold"
       x="-110.25668"
       y="92.487465"
       id="text3407"
       sodipodi:linespacing="125%"><tspan
         sodipodi:role="line"
         x="-110.25668"
         y="92.487465"
         id="tspan3411">traps</tspan></text>
    <g
       id="g3562"
       aria-label="NOT GAY">
      <rect
         ry="3.96875"
         rx="3.96875"
         style="fill:#222222;fill-opacity:1;fill-rule:nonzero;stroke:none"
         id="rect5322"
         width="52.916668"
         height="52.916668"
         x="-124.92114"
         y="153.58655" />
      <rect
         ry="2.6458333"
         rx="2.6458333"
         y="156.23239"
         x="-122.27531"
         height="47.625"
         width="47.625"
         id="rect5324"
         style="fill:#00897b;fill-opacity:1;fill-rule:nonzero;stroke:none" />
      <g
         id="text3415-3-7-3"
         style="font-size:30.29858589px;font-style:normal;font-variant:normal;font-weight:bold;font-stretch:normal;line-height:125%;letter-spacing:0px;word-spacing:0px;fill:#008080;fill-opacity:1;stroke:none;font-family:Arial;-inkscape-font-specification:Arial Bold">
        <path
           sodipodi:nodetypes="ccccccccccsccsccccccccccssscccccc"
           inkscape:connector-curvature="0"
           id="path3528"
           style="fill:#008080;-inkscape-font-specification:Arial Bold"
           d="m -80.502599,155.89609 0.532592,0.23671 2.41146,9.85296 -0.843271,0.22191 -2.100781,-8.59545 -2.160373,3.87842 c 1.459683,0.73972 2.564318,1.73587 3.313908,2.98844 0.749558,1.25258 1.124344,2.59392 1.124362,4.02403 -1.8e-5,1.34134 -0.340285,2.62844 -1.020802,3.86129 -0.680551,1.22299 -1.637243,2.17475 -2.870081,2.85529 -1.223002,0.69039 -2.510099,1.03559 -3.861295,1.03559 -1.341351,0 -2.628448,-0.3452 -3.861294,-1.03559 -1.222994,-0.68054 -2.174755,-1.6323 -2.855287,-2.85529 -0.680536,-1.23285 -1.020803,-2.51995 -1.020802,-3.86129 -10e-7,-2.14023 0.754504,-3.96485 2.263518,-5.47387 1.518869,-1.509 3.358283,-2.2635 5.518248,-2.26352 0.76929,2e-5 1.587903,0.13316 2.455842,0.39945 l 2.189962,-3.9228 -5.92711,2.92492 -2.017393,0.99555 -0.355061,-0.7841 9.083658,-4.48265 m -5.474281,5.66852 c -1.163821,1e-5 -2.302975,0.30083 -3.417467,0.90245 -1.104641,0.59178 -1.967637,1.44491 -2.588991,2.5594 -0.62136,1.11451 -0.932039,2.27339 -0.932036,3.47665 -3e-6,1.92325 0.6756,3.56048 2.026809,4.91168 1.361064,1.36107 2.998291,2.0416 4.911685,2.04161 1.923239,-1e-5 3.560466,-0.68054 4.911685,-2.04161 1.361054,-1.3512 2.041588,-2.98843 2.041604,-4.91168 -1.6e-5,-1.20326 -0.310695,-2.36214 -0.932037,-3.47665 -0.621372,-1.11449 -1.489299,-1.96762 -2.603784,-2.5594 -1.104648,-0.60162 -2.243803,-0.90244 -3.417468,-0.90245" />
      </g>
      <path
         inkscape:connector-curvature="0"
         id="path5326"
         d="m -123.46593,190.62822 v 8.33438 c 0,3.07816 2.47809,5.55625 5.55625,5.55625 h 38.893748 c 3.078162,0 5.55625,-2.47809 5.55625,-5.55625 v -8.33438 z"
         style="fill:#222222;fill-opacity:1;fill-rule:nonzero;stroke:none" />
      <text
         sodipodi:linespacing="125%"
         id="text3415-3-7"
         y="182.92743"
         x="-120.15902"
         style="font-size:30.29858589px;font-style:normal;font-variant:normal;font-weight:bold;font-stretch:normal;line-height:125%;letter-spacing:0px;word-spacing:0px;fill:#000000;fill-opacity:1;stroke:none;font-family:Arial;-inkscape-font-specification:Arial Bold"
         xml:space="preserve"><tspan
           style="font-weight:bold;fill:#ffffff;-inkscape-font-specification:Arial Bold"
           y="182.92743"
           x="-120.15902"
           id="tspan3417-6-5"
           sodipodi:role="line">♂ </tspan></text>
      <text
         sodipodi:linespacing="125%"
         id="text3502"
         y="182.57893"
         x="-97.363281"
         style="font-size:29.89077568px;font-style:normal;font-variant:normal;font-weight:bold;font-stretch:normal;line-height:125%;letter-spacing:0px;word-spacing:0px;fill:#ffffff;fill-opacity:1;stroke:none;font-family:Arial;-inkscape-font-specification:Arial Bold"
         xml:space="preserve"><tspan
           y="182.57893"
           x="-97.363281"
           id="tspan3504"
           sodipodi:role="line">♀️</tspan></text>
      <text
         sodipodi:linespacing="125%"
         id="text3530"
         y="200.25053"
         x="-117.38387"
         style="font-size:11.28888893px;font-style:normal;font-variant:normal;font-weight:bold;font-stretch:normal;line-height:125%;letter-spacing:0px;word-spacing:0px;fill:#ffffff;fill-opacity:1;stroke:none;font-family:Arial;-inkscape-font-specification:Arial Bold"
         xml:space="preserve"><tspan
           y="200.25053"
           x="-117.38387"
           id="tspan3532"
           sodipodi:role="line">not gay</tspan></text>
    </g>
    <g
       id="g3538"
       transform="translate(-1.9956125,0)"
       aria-label="GAY">
      <g
         transform="matrix(2,0,0,2,-122.92553,98.02405)"
         id="g4561"
         style="stroke-width:0.5">
        <rect
           ry="1.984375"
           rx="1.984375"
           style="fill:#222222;fill-opacity:1;fill-rule:nonzero;stroke:none"
           id="rect4485"
           width="26.458334"
           height="26.458334"
           x="0"
           y="-1.110223e-16" />
        <rect
           ry="1.3229166"
           rx="1.3229166"
           y="1.322917"
           x="1.322917"
           height="23.8125"
           width="23.8125"
           id="rect4487"
           style="fill:#ff8080;fill-opacity:1;fill-rule:nonzero;stroke:none" />
        <path
           inkscape:connector-curvature="0"
           id="rect5205-3"
           d="m 0.72760467,18.520836 v 4.167188 c 0,1.539081 1.23904383,2.778124 2.77812503,2.778124 H 22.952604 c 1.539081,0 2.778125,-1.239043 2.778125,-2.778124 v -4.167188 z"
           style="fill:#222222;fill-opacity:1;fill-rule:nonzero;stroke:none" />
        <text
           sodipodi:linespacing="125%"
           id="text3415"
           y="15.155889"
           x="5.249095"
           style="font-size:15.14929295px;font-style:normal;font-variant:normal;font-weight:bold;font-stretch:normal;line-height:125%;letter-spacing:0px;word-spacing:0px;fill:#000000;fill-opacity:1;stroke:none;font-family:Arial;-inkscape-font-specification:Arial Bold"
           xml:space="preserve"><tspan
             style="font-weight:bold;fill:#ffffff;-inkscape-font-specification:Arial Bold"
             y="15.155889"
             x="5.249095"
             id="tspan3417"
             sodipodi:role="line">♂ </tspan></text>
        <text
           sodipodi:linespacing="125%"
           id="text3415-3"
           y="16.081095"
           x="10.506051"
           style="font-size:15.14929295px;font-style:normal;font-variant:normal;font-weight:bold;font-stretch:normal;line-height:125%;letter-spacing:0px;word-spacing:0px;fill:#000000;fill-opacity:1;stroke:none;font-family:Arial;-inkscape-font-specification:Arial Bold"
           xml:space="preserve"><tspan
             style="font-weight:bold;fill:#ffffff;-inkscape-font-specification:Arial Bold"
             y="16.081095"
             x="10.506051"
             id="tspan3417-6"
             sodipodi:role="line">♂ </tspan></text>
      </g>
      <text
         sodipodi:linespacing="125%"
         id="text3534"
         y="145.51375"
         x="-105.98037"
         style="font-size:11.28888893px;font-style:normal;font-variant:normal;font-weight:bold;font-stretch:normal;line-height:125%;letter-spacing:0px;word-spacing:0px;fill:#000000;fill-opacity:1;stroke:none;font-family:Arial;-inkscape-font-specification:Arial Bold"
         xml:space="preserve"><tspan
           style="fill:#ffffff"
           y="145.51375"
           x="-105.98037"
           id="tspan3536"
           sodipodi:role="line">gay</tspan></text>
    </g>
  </g>
</svg>
